# xmcd CD database file
#
# Track frame offsets:
#	150
#	21429
#	34515
#	51641
#	68003
#	84431
#	103425
#	119367
#	134070
#	154734
#
# Disc length: 2300 seconds
#
# Revision: 0
# Processed by: cddbd v1.5.2PL0 Copyright (c) Steve Scherf et al.
# Submitted via: CDex 1.51
#
DISCID=8f08fa0a
DTITLE=Austin Lucas - Between the Moon and The Midwest
DYEAR=2016
DGENRE=Country
TTITLE0=Unbroken Hearts
TTITLE1=Ain't We Free
TTITLE2=Kristie Rae
TTITLE3=Wrong Side of the Dream
TTITLE4=Pray For Rain
TTITLE5=The Flame
TTITLE6=Next to You
TTITLE7=Call the Doctor
TTITLE8=William
TTITLE9=Austin Lucas - Midnight
EXTD=YEAR: 2016
EXTT0=
EXTT1=
EXTT2=
EXTT3=
EXTT4=
EXTT5=
EXTT6=
EXTT7=
EXTT8=
EXTT9=
PLAYORDER=
